<?xml version="1.0" encoding="UTF-8" standalone="no"?>
<!-- Created with Inkscape (http://www.inkscape.org/) -->

<svg
   xmlns:dc="http://purl.org/dc/elements/1.1/"
   xmlns:cc="http://creativecommons.org/ns#"
   xmlns:rdf="http://www.w3.org/1999/02/22-rdf-syntax-ns#"
   xmlns:svg="http://www.w3.org/2000/svg"
   xmlns="http://www.w3.org/2000/svg"
   xmlns:sodipodi="http://sodipodi.sourceforge.net/DTD/sodipodi-0.dtd"
   xmlns:inkscape="http://www.inkscape.org/namespaces/inkscape"
   version="1.1"
   id="svg193"
   width="512"
   height="512"
   viewBox="0 0 512 512"
   sodipodi:docname="flower.svg"
   inkscape:version="0.92.3 (2405546, 2018-03-11)">
  <metadata
     id="metadata199">
    <rdf:RDF>
      <cc:Work
         rdf:about="">
        <dc:format>image/svg+xml</dc:format>
        <dc:type
           rdf:resource="http://purl.org/dc/dcmitype/StillImage" />
        <dc:title></dc:title>
      </cc:Work>
    </rdf:RDF>
  </metadata>
  <defs
     id="defs197" />
  <sodipodi:namedview
     pagecolor="#ffffff"
     bordercolor="#666666"
     borderopacity="1"
     objecttolerance="10"
     gridtolerance="10"
     guidetolerance="10"
     inkscape:pageopacity="0"
     inkscape:pageshadow="2"
     inkscape:window-width="1366"
     inkscape:window-height="737"
     id="namedview195"
     showgrid="false"
     inkscape:zoom="0.4609375"
     inkscape:cx="279.72544"
     inkscape:cy="427.75733"
     inkscape:window-x="0"
     inkscape:window-y="0"
     inkscape:window-maximized="1"
     inkscape:current-layer="svg193" />
  <g
     id="g203"
     transform="matrix(0.73471556,0,0,0.71425145,571.74604,230.90473)">
    <path
       style="fill:#a1d4a3"
       d="m -523.63135,294.36151 c 0.9625,-0.25152 2.5375,-0.25152 3.5,0 0.9625,0.25153 0.175,0.45733 -1.75,0.45733 -1.925,0 -2.7125,-0.2058 -1.75,-0.45733 z m 17.51166,-0.0179 c 1.24391,-0.23919 3.04391,-0.23011 4,0.0202 0.95609,0.25029 -0.0617,0.446 -2.26166,0.4349 -2.2,-0.0111 -2.98225,-0.21589 -1.73834,-0.45508 z m 168,0 c 1.24391,-0.23919 3.04391,-0.23011 4,0.0202 0.95609,0.25029 -0.0617,0.446 -2.26166,0.4349 -2.2,-0.0111 -2.98225,-0.21589 -1.73834,-0.45508 z m 17,0 c 1.24391,-0.23919 3.04391,-0.23011 4,0.0202 0.95609,0.25029 -0.0617,0.446 -2.26166,0.4349 -2.2,-0.0111 -2.98225,-0.21589 -1.73834,-0.45508 z m -210.01166,-0.95505 c 0.6875,-0.27741 1.8125,-0.27741 2.5,0 0.6875,0.27741 0.125,0.50439 -1.25,0.50439 -1.375,0 -1.9375,-0.22698 -1.25,-0.50439 z m 33,0 c 0.6875,-0.27741 1.8125,-0.27741 2.5,0 0.6875,0.27741 0.125,0.50439 -1.25,0.50439 -1.375,0 -1.9375,-0.22698 -1.25,-0.50439 z m 154.0625,-0.0208 c 0.72187,-0.28887 1.58438,-0.25335 1.91667,0.0789 0.33229,0.33229 -0.25834,0.56864 -1.3125,0.52522 -1.16495,-0.048 -1.4019,-0.28494 -0.60417,-0.60416 z m 32,0 c 0.72187,-0.28887 1.58438,-0.25335 1.91667,0.0789 0.33229,0.33229 -0.25834,0.56864 -1.3125,0.52522 -1.16495,-0.048 -1.4019,-0.28494 -0.60417,-0.60416 z m -224,-1 c 0.72187,-0.28887 1.58437,-0.25335 1.91667,0.0789 0.33229,0.33229 -0.25834,0.56864 -1.3125,0.52522 -1.16495,-0.048 -1.4019,-0.28494 -0.60417,-0.60416 z m 229,0 c 0.72187,-0.28887 1.58438,-0.25335 1.91667,0.0789 0.33229,0.33229 -0.25834,0.56864 -1.3125,0.52522 -1.16495,-0.048 -1.4019,-0.28494 -0.60417,-0.60416 z m -240.85375,-3.21861 c -8.87079,-3.29891 -12.34372,-5.04664 -11.56856,-5.8218 0.30881,-0.30882 1.21752,-0.017 2.01934,0.64844 0.80183,0.66546 5.65021,2.73212 10.77417,4.59257 5.12397,1.86046 8.6413,3.38324 7.8163,3.38396 -0.825,7.2e-4 -4.89356,-1.26071 -9.04125,-2.80317 z m 64.04125,0.46591 c 3.575,-1.29855 8.3,-3.12347 10.5,-4.05537 2.2,-0.93191 3.55,-1.23078 3,-0.66417 -1.41983,1.46271 -15.96769,7.16277 -18.16659,7.11793 -1.00837,-0.0206 1.09159,-1.09984 4.66659,-2.39839 z m 124.4319,0.0754 c -7.67942,-2.8552 -18.33786,-8.66383 -25.4319,-13.85982 -5.45375,-3.99456 -20.45452,-18.65861 -19.77855,-19.33458 0.19353,-0.19353 4.84994,4.01462 10.34757,9.35145 11.25796,10.92867 21.62627,17.6503 35.18235,22.80823 4.81175,1.83081 8.07363,3.32023 7.24863,3.30982 -0.825,-0.0104 -4.23064,-1.03419 -7.5681,-2.27507 z m 56.3806,1.67724 c 0.72187,-0.28887 1.58438,-0.25335 1.91667,0.0789 0.33229,0.33229 -0.25834,0.56864 -1.3125,0.52522 -1.16495,-0.048 -1.4019,-0.28494 -0.60417,-0.60416 z m 4.6875,-1.31616 c 9.67096,-4.1774 18.5,-7.71422 18.5,-7.4109 0,0.69547 -8.39928,4.65527 -13.85845,6.53349 -5.59331,1.92439 -8.21087,2.41919 -4.64155,0.87741 z m -170.5,-6.40192 c 0,-0.69532 7.23118,-4.70093 7.67863,-4.25348 0.23461,0.23461 -1.11272,1.3779 -2.99406,2.54063 -3.31009,2.04575 -4.68457,2.54831 -4.68457,1.71285 z m -96.55887,-3.15395 c -1.86402,-1.49339 -1.85176,-1.51185 0.30887,-0.46481 1.2375,0.59969 2.25,1.29951 2.25,1.55516 0,0.76522 -0.51861,0.54424 -2.55887,-1.09035 z m -9.20825,-5.85231 c -8.22383,-6.05404 -17.3148,-15.36631 -23.35275,-23.92124 -5.4445,-7.71409 -11.32671,-18.55804 -10.50979,-19.37496 0.27571,-0.27571 2.08271,2.63897 4.01554,6.47707 1.93284,3.8381 4.98036,9.17172 6.77227,11.85249 4.13816,6.19083 17.74682,19.91366 24.59185,24.79815 4.73407,3.37815 6.00624,4.57597 4.86001,4.57597 -0.2145,0 -3.08421,-1.98337 -6.37713,-4.40748 z m 114.76712,4.0553 c 0,-0.2324 3.2625,-3.03487 7.25,-6.22772 3.9875,-3.19285 8.15,-6.75188 9.25,-7.90896 7.41427,-7.79895 18.72934,-23.82219 21.43479,-30.35371 0.71932,-1.73659 1.61991,-3.15743 2.00132,-3.15743 0.38141,0 1.49753,1.6875 2.48029,3.75 0.98275,2.0625 4.22818,7.49653 7.21207,12.07562 2.98389,4.57909 4.91887,8.01266 4.29996,7.63015 -1.52944,-0.94525 -10.24143,-14.38299 -11.86322,-18.29834 -1.63894,-3.95676 -2.4858,-3.97048 -4.10289,-0.0665 -1.83891,4.43952 -8.38765,14.38891 -14.33547,21.77962 -6.24963,7.76579 -23.62685,23.04715 -23.62685,20.77727 z m 186,0.055 c 0,-0.28998 2.81446,-2.53559 6.25436,-4.99026 12.0808,-8.62067 23.3852,-22.13157 30.78933,-36.79909 1.698,-3.3637 3.31226,-5.89082 3.58726,-5.61582 1.74649,1.74645 -12.14604,22.95927 -20.76226,31.70235 -7.51501,7.62566 -19.86869,17.38912 -19.86869,15.70279 z m -248.25,-14.3651 c 0.6875,-0.27741 1.8125,-0.27741 2.5,0 0.6875,0.27741 0.125,0.50439 -1.25,0.50439 -1.375,0 -1.9375,-0.22698 -1.25,-0.50439 z m 14.5,-0.027 c 0.9625,-0.25152 2.5375,-0.25152 3.5,0 0.9625,0.25153 0.175,0.45733 -1.75,0.45733 -1.925,0 -2.7125,-0.2058 -1.75,-0.45733 z m 172.01903,-0.004 c 0.97297,-0.25354 2.32297,-0.23687 3,0.0371 0.67703,0.27393 -0.11903,0.48137 -1.76903,0.46099 -1.65,-0.0204 -2.20394,-0.2445 -1.23097,-0.49804 z m 14.48097,0.0307 c 0.6875,-0.27741 1.8125,-0.27741 2.5,0 0.6875,0.27741 0.125,0.50439 -1.25,0.50439 -1.375,0 -1.9375,-0.22698 -1.25,-0.50439 z m -206.9375,-1.02083 c 0.72187,-0.28887 1.58437,-0.25335 1.91667,0.0789 0.33229,0.33229 -0.25834,0.56864 -1.3125,0.52522 -1.16495,-0.048 -1.4019,-0.28494 -0.60417,-0.60416 z m 34.1875,-1.81659 c 4.5657,-1.75824 6.36206,-1.73229 2.5,0.0361 -1.65,0.75553 -3.675,1.35974 -4.5,1.34271 -0.825,-0.017 0.075,-0.63751 2,-1.37882 z m 146.5,0.5 c -1.31874,-0.56668 -1.48906,-0.87815 -0.5,-0.9144 0.825,-0.0302 2.175,0.38124 3,0.9144 1.82797,1.18132 0.24909,1.18132 -2.5,0 z m -195.06826,-2.8917 c -12.42511,-5.64341 -27.82462,-19.0282 -33.24572,-28.89618 -2.73773,-4.98345 -2.26027,-5.69801 0.58504,-0.87557 6.63215,11.24066 20.32426,23.19027 33.34943,29.10529 2.95873,1.34362 4.92951,2.45899 4.37951,2.47859 -0.55,0.0196 -2.83072,-0.79585 -5.06826,-1.81213 z m 183.56826,-2.28154 c -8.72543,-4.82434 -24.13491,-19.7178 -27.78696,-26.85645 -1.25783,-2.45867 -1.70783,-3.62532 -1,-2.59255 9.42445,13.75089 20.06219,23.84163 31.65246,30.02486 3.64898,1.94666 6.1845,3.54649 5.6345,3.55517 -0.55,0.009 -4.375,-1.85029 -8.5,-4.13103 z m 61.13925,0.42752 c 13.10674,-6.70978 24.74042,-17.15651 31.08969,-27.91773 2.20361,-3.73484 3.49628,-4.58185 1.65825,-1.08655 -6.90405,13.12912 -25.03962,28.54383 -37.88719,32.20302 -1.375,0.39163 0.93766,-1.04781 5.13925,-3.19874 z m -189.99271,2.26585 c 0.26393,-0.26393 2.59634,-1.60521 5.18313,-2.98062 7.39105,-3.92986 15.10543,-10.01141 19.99021,-15.75906 8.8735,-10.44097 10.13328,-11.68162 6.52285,-6.4238 -4.87943,7.10586 -16.65217,17.87967 -24.07088,22.02845 -5.69602,3.18539 -9.05783,4.56755 -7.62531,3.13503 z m -123.03543,-32.63124 c -0.61607,-1.76726 -0.94513,-3.38821 -0.73124,-3.60209 0.21389,-0.21389 0.89295,1.05705 1.50902,2.82431 0.61607,1.76726 0.94513,3.38821 0.73124,3.60209 -0.21389,0.21389 -0.89295,-1.05705 -1.50902,-2.82431 z m 378.97449,-0.38889 c 0.10413,-1.89422 1.77076,-5.08385 1.8288,-3.5 0.0302,0.825 -0.38124,2.175 -0.9144,3 -0.53316,0.825 -0.94464,1.05 -0.9144,0.5 z m -217.00243,-5.66303 c 1.1681,-2.28966 3.62874,-8.25216 5.4681,-13.25 3.82704,-10.39869 4.62932,-10.4076 1.09283,-0.0121 -2.39959,7.05355 -7.26914,17.42513 -8.18127,17.42513 -0.27691,0 0.45224,-1.87336 1.62034,-4.16303 z m -131.4165,1.49636 c -0.36667,-0.36666 -0.66667,-1.13166 -0.66667,-1.7 0,-0.6266 0.46577,-0.56756 1.18333,0.15 0.65084,0.65084 0.95084,1.41584 0.66667,1.7 -0.28417,0.28417 -0.81667,0.21667 -1.18333,-0.15 z m 187.51521,-2.98642 c -2.30163,-4.52285 -8.20422,-20.98269 -8.13195,-22.67659 0.0275,-0.64368 1.57711,3.036 3.44367,8.17705 1.86656,5.14106 4.30615,11.19151 5.42131,13.44544 1.11515,2.25393 1.84689,4.27872 1.62608,4.49953 -0.22081,0.22081 -1.28241,-1.32964 -2.35911,-3.44543 z m 130.38241,2.35996 c 0.37553,-0.98622 0.93469,-1.54122 1.24258,-1.23333 0.30789,0.30789 6.4e-4,1.11479 -0.68278,1.79313 -0.98762,0.98026 -1.10248,0.8654 -0.5598,-0.5598 z m -319.96429,-4.30687 c -0.35589,-0.92744 -0.42208,-1.91126 -0.14708,-2.18626 0.275,-0.275 0.79119,0.25882 1.14708,1.18626 0.35589,0.92744 0.42208,1.91126 0.14708,2.18626 -0.275,0.275 -0.79119,-0.25882 -1.14708,-1.18626 z m 321.41531,0.40902 c -0.008,-0.93004 0.43469,-1.9691 0.98469,-2.30902 1.2656,-0.78218 1.2656,0.54163 0,2.5 -0.8354,1.29269 -0.97149,1.26629 -0.98469,-0.19098 z m 32.64094,-3.30902 c 0.33499,-2.2 0.77437,-4.1875 0.97641,-4.41667 0.75747,-0.85918 0.19039,4.49696 -0.67936,6.41667 -0.63152,1.3939 -0.72154,0.7878 -0.29705,-2 z m -386.5773,-2.08333 c 0.048,-1.16495 0.28494,-1.4019 0.60416,-0.60417 0.28888,0.72187 0.25335,1.58438 -0.0789,1.91667 -0.33229,0.33229 -0.56864,-0.25834 -0.52522,-1.3125 z m 31,0 c 0.048,-1.16495 0.28494,-1.4019 0.60416,-0.60417 0.28888,0.72187 0.25335,1.58438 -0.0789,1.91667 -0.33229,0.33229 -0.56864,-0.25834 -0.52522,-1.3125 z m 325,0 c 0.048,-1.16495 0.28494,-1.4019 0.60416,-0.60417 0.28887,0.72187 0.25335,1.58438 -0.0789,1.91667 -0.33229,0.33229 -0.56864,-0.25834 -0.52522,-1.3125 z m -326.90488,-7.11269 c -1.52667,-6.97611 -2.06521,-14.30398 -1.05123,-14.30398 0.48244,0 0.87967,2.3625 0.88274,5.25 0.003,2.8875 0.48587,6.9797 1.07289,9.09377 0.58703,2.11408 0.86023,4.05087 0.60712,4.30398 -0.25312,0.25311 -0.9333,-1.70159 -1.51152,-4.34377 z m 328.40856,2.69602 c 0.30876,-1.375 0.81316,-5.7625 1.12089,-9.75 0.30772,-3.9875 0.9178,-7.25 1.35573,-7.25 1.09764,0 -0.0669,10.61824 -1.69994,15.5 -0.73594,2.2 -1.08545,2.875 -0.77668,1.5 z m -358.38768,-1.5 c 0.0204,-1.65 0.2445,-2.20394 0.49804,-1.23097 0.25354,0.97297 0.23687,2.32297 -0.0371,3 -0.27393,0.67703 -0.48137,-0.11903 -0.46099,-1.76903 z m 389,0 c 0.0204,-1.65 0.2445,-2.20394 0.49804,-1.23097 0.25354,0.97297 0.23687,2.32297 -0.0371,3 -0.27393,0.67703 -0.48137,-0.11903 -0.46099,-1.76903 z m -389.80641,-17 c 0.002,-7.15 0.16103,-9.94379 0.35396,-6.20841 0.19293,3.73537 0.19149,9.58537 -0.003,13 -0.19466,3.41462 -0.35251,0.35841 -0.35076,-6.79159 z m 390.93153,6.5 c 0,-3.575 0.1815,-5.0375 0.40333,-3.25 0.22182,1.7875 0.22182,4.7125 0,6.5 -0.22183,1.7875 -0.40333,0.325 -0.40333,-3.25 z m -214.24112,0.41667 c 0.048,-1.16495 0.28494,-1.4019 0.60416,-0.60417 0.28887,0.72187 0.25335,1.58438 -0.0789,1.91667 -0.3323,0.33229 -0.56864,-0.25834 -0.52522,-1.3125 z m 38,-3 c 0.048,-1.16495 0.28494,-1.4019 0.60416,-0.60417 0.28887,0.72187 0.25335,1.58438 -0.0789,1.91667 -0.33229,0.33229 -0.56864,-0.25834 -0.52522,-1.3125 z m -37,-1 c 0.048,-1.16495 0.28494,-1.4019 0.60416,-0.60417 0.28887,0.72187 0.25335,1.58438 -0.0789,1.91667 -0.3323,0.33229 -0.56864,-0.25834 -0.52522,-1.3125 z m 1,-4 c 0.048,-1.16495 0.28494,-1.4019 0.60416,-0.60417 0.28887,0.72187 0.25335,1.58438 -0.0789,1.91667 -0.3323,0.33229 -0.56864,-0.25834 -0.52522,-1.3125 z m 35,0 c 0.048,-1.16495 0.28494,-1.4019 0.60416,-0.60417 0.28887,0.72187 0.25335,1.58438 -0.0789,1.91667 -0.33229,0.33229 -0.56864,-0.25834 -0.52522,-1.3125 z m -183.86012,-5.41667 c -0.0358,-3.025 0.5654,-7.3 1.33605,-9.5 0.91046,-2.59914 1.18562,-2.94935 0.78569,-1 -0.33852,1.65 -0.93974,5.925 -1.33605,9.5 l -0.72057,6.5 -0.0651,-5.5 z m 330.55821,-1.5 c -0.39763,-3.85 -0.95536,-8.125 -1.23939,-9.5 -0.28403,-1.375 0.16592,-0.475 0.9999,2 0.83397,2.475 1.39169,6.75 1.23938,9.5 -0.26951,4.86601 -0.2963,4.81241 -0.99989,-2 z m 30.52262,0.5 c 0,-3.025 0.18747,-4.2625 0.41659,-2.75 0.22913,1.5125 0.22913,3.9875 0,5.5 -0.22912,1.5125 -0.41659,0.275 -0.41659,-2.75 z m -178.14177,2 c 0,-1.375 0.22698,-1.9375 0.50439,-1.25 0.27741,0.6875 0.27741,1.8125 0,2.5 -0.27741,0.6875 -0.50439,0.125 -0.50439,-1.25 z m -33.07894,-1.58333 c 0.048,-1.16495 0.28494,-1.4019 0.60416,-0.60417 0.28887,0.72187 0.25335,1.58438 -0.0789,1.91667 -0.3323,0.33229 -0.56864,-0.25834 -0.52522,-1.3125 z m -61.99252,-2.3281 c 5.2167,-0.73273 8.69132,-2.72078 11.84978,-6.78001 2.7266,-3.5042 17.68076,-24.05306 25.53321,-35.08578 5.29841,-7.44428 10.53554,-13.46178 8.02674,-9.22278 -0.48827,0.825 -4.06215,5.82049 -7.94196,11.10108 -3.87981,5.2806 -11.5542,15.78377 -17.0542,23.34038 -10.79228,14.82783 -14.25214,17.67024 -21.21016,17.42493 -3.75072,-0.13224 -3.74249,-0.14027 0.79659,-0.77782 z m 151.10674,-0.76377 c -1.81876,-0.89631 -4.67313,-3.69856 -6.34304,-6.22723 l -3.0362,-4.59757 3.68973,4.26657 c 4.47478,5.17434 6.64498,6.44279 12.49634,7.30394 l 4.5,0.66226 -4,0.11085 c -2.2,0.061 -5.48807,-0.62251 -7.30683,-1.51882 z m -161.64443,-2.41615 c -3.42025,-3.00302 -6.23914,-9.65202 -5.18625,-12.23298 0.26379,-0.64662 0.51514,-0.39728 0.55856,0.55409 0.18627,4.08111 3.51816,9.99659 6.9404,12.32206 1.98155,1.3465 3.06402,2.44818 2.40548,2.44818 -0.65854,0 -2.78172,-1.39111 -4.71819,-3.09135 z m 104.60915,0.0914 c 0,-1.375 0.22698,-1.9375 0.50439,-1.25 0.27741,0.6875 0.27741,1.8125 0,2.5 -0.27741,0.6875 -0.50439,0.125 -0.50439,-1.25 z m 71.84211,1.7282 c 0,-0.28418 1.35,-1.96187 3,-3.7282 2.88426,-3.08761 4.22574,-3.08761 1.7182,0 -1.54544,1.90293 -4.7182,4.40997 -4.7182,3.7282 z m -102.768,-3.7282 c 0,-1.925 0.2058,-2.7125 0.45733,-1.75 0.25152,0.9625 0.25152,2.5375 0,3.5 -0.25153,0.9625 -0.45733,0.175 -0.45733,-1.75 z m -180.0741,-2 c 0,-1.375 0.22697,-1.9375 0.50438,-1.25 0.27741,0.6875 0.27741,1.8125 0,2.5 -0.27741,0.6875 -0.50438,0.125 -0.50438,-1.25 z m 388.99999,0 c 0,-1.375 0.22698,-1.9375 0.50439,-1.25 0.27741,0.6875 0.27741,1.8125 0,2.5 -0.27741,0.6875 -0.50439,0.125 -0.50439,-1.25 z m -1.07894,-4.58333 c 0.048,-1.16495 0.28494,-1.4019 0.60416,-0.60417 0.28887,0.72187 0.25335,1.58438 -0.0789,1.91667 -0.33229,0.33229 -0.56864,-0.25834 -0.52522,-1.3125 z m -356,-1 c 0.048,-1.16495 0.28494,-1.4019 0.60416,-0.60417 0.28888,0.72187 0.25335,1.58438 -0.0789,1.91667 -0.33229,0.33229 -0.56864,-0.25834 -0.52522,-1.3125 z m 324.12105,-2.11667 c -1.47979,-4.8216 -0.76361,-5.53778 0.8,-0.8 0.65963,1.9987 1.00486,3.82847 0.76718,4.06615 -0.23768,0.23768 -0.94291,-1.23209 -1.56718,-3.26615 z m -100.96893,-1.05 c -2.65654,-3.39191 -20.48592,-27.99158 -26.09213,-36 -1.25132,-1.7875 -2.06997,-3.25 -1.81922,-3.25 0.25075,0 3.76889,4.54774 7.81809,10.10609 4.04921,5.55835 9.62896,13.09585 12.39945,16.75 6.40664,8.45006 11.69419,16.14391 11.09481,16.14391 -0.25521,0 -1.78566,-1.6875 -3.401,-3.75 z m 34.84788,1.16667 c 0.048,-1.16495 0.28494,-1.4019 0.60416,-0.60417 0.28887,0.72187 0.25335,1.58438 -0.0789,1.91667 -0.33229,0.33229 -0.56864,-0.25834 -0.52522,-1.3125 z m -288,-2 c 0.048,-1.16495 0.28494,-1.4019 0.60416,-0.60417 0.28888,0.72187 0.25335,1.58438 -0.0789,1.91667 -0.33229,0.33229 -0.56864,-0.25834 -0.52522,-1.3125 z m 30.95168,1.08333 c 0,-0.55 0.43621,-1.675 0.96937,-2.5 0.53316,-0.825 0.96937,-1.05 0.96937,-0.5 0,0.55 -0.43621,1.675 -0.96937,2.5 -0.53316,0.825 -0.96937,1.05 -0.96937,0.5 z m 354.04832,-1.08333 c 0.048,-1.16495 0.28494,-1.4019 0.60416,-0.60417 0.28887,0.72187 0.25335,1.58438 -0.0789,1.91667 -0.33229,0.33229 -0.56864,-0.25834 -0.52522,-1.3125 z m -98.79565,-3.66667 c -0.57075,-1.2375 -7.06992,-10.575 -14.4426,-20.75 -17.10961,-23.6129 -18.07917,-25 -17.4745,-25 0.88394,0 32.40573,43.70606 33.10045,45.89493 0.88442,2.78655 0.12584,2.69365 -1.18335,-0.14493 z m -185.2833,-1.56144 c 0,-0.44629 0.79428,-1.68379 1.76507,-2.75 0.97079,-1.06621 3.48411,-4.30106 5.58517,-7.18856 2.10105,-2.8875 4.03333,-5.25 4.29395,-5.25 0.65552,0 -0.28527,1.47058 -5.91761,9.25 -4.77996,6.60209 -5.72658,7.58376 -5.72658,5.93856 z m -66.98315,-0.81025 c -0.009,-0.61694 2.18045,-4.44194 4.86604,-8.5 6.47247,-9.78024 22.82655,-25.55241 30.86711,-29.7688 4.03643,-2.11666 2.37034,-0.38386 -3.16117,3.28774 -11.51769,7.64501 -22.37146,19.27088 -30.43756,32.60275 -1.16467,1.925 -2.12516,2.99524 -2.13442,2.37831 z m 313.56132,-6.12831 c -4.70935,-8.26132 -19.06184,-22.75157 -29.61832,-29.90261 -4.14708,-2.80926 -11.68458,-7.21678 -16.75,-9.79449 -8.95312,-4.55609 -11.79833,-6.48754 -6.70306,-4.55032 6.34963,2.41413 21.46783,11.4009 29.49321,17.53178 3.025,2.31091 8.37004,7.07355 11.87786,10.58364 7.45071,7.45554 18.12635,22.882 15.83513,22.882 -0.15785,0 -2.01852,-3.0375 -4.13482,-6.75 z m -344.97644,3.75 c 0.89859,-3.54767 7.14381,-17 7.89222,-17 0.34325,0 0.4482,0.3375 0.23322,0.75 -0.21497,0.4125 -1.21634,2.55 -2.22526,4.75 -4.99799,10.89835 -6.47888,13.78473 -5.90018,11.5 z m 376.94766,-6.76256 c -3.09148,-6.38686 -4.59985,-10.23744 -4.01027,-10.23744 0.78809,0 6.7964,12.99781 6.25744,13.53677 -0.24096,0.24096 -1.25219,-1.24373 -2.24717,-3.29933 z m -266.54939,-6.66601 c 0,-0.23572 0.58724,-1.02322 1.30498,-1.75 0.71774,-0.72679 3.16403,-4.02143 5.43619,-7.32143 4.25259,-6.1763 10.00064,-13.16572 8.63512,-10.5 -1.20964,2.36142 -14.33666,20 -14.88444,20 -0.27052,0 -0.49185,-0.19286 -0.49185,-0.42857 z m 257.57467,-10.02216 c -1.91774,-2.9979 -6.72244,-8.85702 -10.67712,-13.02027 -3.95468,-4.16326 -6.95521,-7.80467 -6.66784,-8.09204 0.28737,-0.28737 2.26574,-0.72643 4.39639,-0.9757 l 3.8739,-0.45322 -3.27267,1.03045 -3.27267,1.03044 7.04081,8.13441 c 6.33001,7.31322 13.70869,17.79666 12.52602,17.79666 -0.25302,0 -2.02909,-2.45283 -3.94682,-5.45073 z m -356.96351,1.20073 c 0.40106,-0.6875 1.96961,-3.05 3.48566,-5.25 2.62301,-3.80634 4.40292,-5.90206 11.1994,-13.18652 l 2.97306,-3.18652 -3.38464,-1.05946 -3.38464,-1.05946 3.8739,0.45322 c 2.13065,0.24927 4.10903,0.68833 4.39639,0.9757 0.28737,0.28737 -2.67529,3.88892 -6.5837,8.00346 -3.9084,4.11453 -8.30908,9.29866 -9.77928,11.52028 -2.43229,3.67544 -4.53908,5.77707 -2.79615,2.7893 z m 158.04231,-4.23853 c -3.7656,-1.30416 -7.1406,-2.69946 -7.5,-3.10067 -0.35941,-0.4012 0.24653,-0.40354 1.34653,-0.005 1.1,0.39835 4.5875,1.44383 7.75,2.32328 3.1625,0.87946 5.75,1.97523 5.75,2.43506 0,0.45983 -0.1125,0.80965 -0.25,0.77739 -0.1375,-0.0323 -3.33094,-1.12571 -7.09653,-2.42987 z m 44.31307,-0.96312 c 4.1066,-1.34673 7.61277,-2.30238 7.79149,-2.12365 0.60201,0.602 -7.3736,3.41395 -11.33291,3.99561 -2.56355,0.37661 -1.33508,-0.27274 3.54142,-1.87196 z m -86.96654,-7.92803 c 0,-0.20882 2.025,-2.98748 4.5,-6.17479 2.475,-3.18731 4.5,-6.09671 4.5,-6.46533 0,-0.36863 -0.92118,-1.50388 -2.04706,-2.52279 -1.12588,-1.01891 -3.00874,-3.56365 -4.18414,-5.65499 -1.17539,-2.09133 -2.74791,-3.80242 -3.49448,-3.80242 -0.74657,0 -5.90558,1.58312 -11.46448,3.51804 -5.5589,1.93493 -10.27665,3.34848 -10.4839,3.14124 -0.52374,-0.52375 19.80344,-7.67995 21.78248,-7.66855 0.88463,0.005 3.35963,2.55171 5.5,5.65915 2.14037,3.10743 4.30148,6.19751 4.80248,6.86685 0.61646,0.8236 -0.61461,3.19949 -3.80845,7.35013 -4.24335,5.51456 -5.60245,6.91029 -5.60245,5.75346 z m -55.98336,-2.25531 c 0.0202,-1.04707 12.03658,-7.64512 12.70537,-6.97633 0.25949,0.25949 -1.48431,1.46823 -3.8751,2.68609 -2.3908,1.21786 -5.35941,2.87601 -6.59691,3.68477 -1.2375,0.80876 -2.24251,1.08123 -2.23336,0.60547 z m 178.79045,-6.11501 c -2.98181,-3.4721 -2.93587,-4.25618 0.49829,-8.50552 1.88663,-2.33446 3.95555,-5.25698 4.59761,-6.49448 0.64206,-1.2375 1.89412,-2.25 2.78235,-2.25 1.95796,0 21.48741,7.16058 20.96211,7.68588 -0.20436,0.20437 -4.97464,-1.26536 -10.60061,-3.26605 -5.63353,-2.00339 -10.59918,-3.25176 -11.05293,-2.77873 -0.45314,0.47239 -2.64117,3.29388 -4.8623,6.26997 l -4.03841,5.41107 2.02149,2.83893 c 2.23677,3.14125 2.04325,3.82633 -0.3076,1.08893 z m -163.36596,-2.79974 c 2.1498,-1.60616 3.97929,-1.93952 3.13347,-0.57097 -0.29889,0.48361 -1.56295,1.13623 -2.80902,1.45027 -2.18576,0.55085 -2.19719,0.51987 -0.32445,-0.8793 z m -76.78597,-2.06899 c -4.31467,-1.3887 -7.63957,-2.73019 -7.38869,-2.98107 0.25088,-0.25089 1.75606,0.047 3.34484,0.66199 1.58878,0.61499 6.03869,1.9528 9.88869,2.97292 3.85,1.02012 5.875,1.85844 4.5,1.86292 -1.375,0.004 -6.03018,-1.12805 -10.34484,-2.51676 z m 357.26377,0.56593 c 4.08042,-1.06846 7.58018,-1.78143 7.77725,-1.58435 0.52987,0.52986 -11.00775,3.64625 -13.26178,3.58209 -1.06392,-0.0303 1.40412,-0.92927 5.48453,-1.99774 z m -272.91893,-1.9472 c 0.825,-0.53316 1.95,-0.96937 2.5,-0.96937 0.55,0 0.325,0.43621 -0.5,0.96937 -0.825,0.53316 -1.95,0.96937 -2.5,0.96937 -0.55,0 -0.325,-0.43621 0.5,-0.96937 z m 191,-0.5 c -1.375,-0.78602 -2.05,-1.42913 -1.5,-1.42913 0.55,0 2.125,0.64311 3.5,1.42913 1.375,0.78602 2.05,1.42913 1.5,1.42913 -0.55,0 -2.125,-0.64311 -3.5,-1.42913 z m -291.0909,-4.43181 c -7.62041,-3.93837 -16.188,-9.49123 -17.95245,-11.6354 -0.80116,-0.97358 1.00329,-0.007 4.00988,2.14853 3.00659,2.15527 9.08159,5.81804 13.5,8.13948 4.41841,2.32145 7.58347,4.22442 7.03347,4.22884 -0.55,0.004 -3.51591,-1.29224 -6.5909,-2.88145 z m 394.52617,-1.2235 c 4.3644,-2.23043 10.4394,-5.89436 13.5,-8.14206 3.0606,-2.2477 4.924,-3.29743 4.14088,-2.33274 -2.72715,3.35948 -21.997,14.73431 -24.69985,14.58012 -0.48197,-0.0275 2.69457,-1.87489 7.05897,-4.10532 z m -199.66736,2.43058 c 1.79735,-0.22256 4.49735,-0.21797 6,0.0102 1.50265,0.22818 0.0321,0.41027 -3.26791,0.40466 -3.3,-0.006 -4.52944,-0.1923 -2.73209,-0.41486 z m -11.30082,-1.67257 c -5.99182,-1.87722 -14.46112,-7.65415 -19.35171,-13.19984 -4.04177,-4.58317 -9.70971,-14.14186 -8.87848,-14.97309 0.20425,-0.20425 1.697,2.19826 3.31723,5.33892 5.36567,10.40084 15.19774,18.44898 27.24357,22.30051 3.13626,1.00278 4.8023,1.81734 3.7023,1.81013 -1.1,-0.007 -3.81481,-0.5817 -6.03291,-1.27663 z m 23.34541,0.71419 c 0.72187,-0.28887 1.58438,-0.25335 1.91667,0.0789 0.33229,0.33229 -0.25834,0.56864 -1.3125,0.52522 -1.16495,-0.048 -1.4019,-0.28494 -0.60417,-0.60416 z m 4.1875,-1.31689 c 0.825,-0.53316 2.175,-0.96937 3,-0.96937 1.33333,0 1.33333,0.1077 0,0.96937 -0.825,0.53316 -2.175,0.96937 -3,0.96937 -1.33333,0 -1.33333,-0.1077 0,-0.96937 z m 5,-1.47968 c 0,-0.26382 1.70283,-1.34839 3.78406,-2.41015 4.43007,-2.26006 11.95176,-9.16915 15.24417,-14.00263 1.27096,-1.86585 3.34886,-5.91585 4.61757,-9 1.2687,-3.08415 2.31706,-4.93254 2.32968,-4.10754 0.0508,3.32463 -6.22591,14.38451 -11.07098,19.50746 -5.56868,5.88806 -14.9045,12.15987 -14.9045,10.01286 z M -642.96134,82.70232 c -5.99973,-5.68186 -14.91345,-16.8728 -18.44045,-23.15148 -3.69817,-6.58341 -2.03471,-4.77691 4.05861,4.40759 2.70295,4.07418 8.23436,10.93668 12.29203,15.25 4.05766,4.31333 7.21832,7.8399 7.02369,7.83682 -0.19464,-0.003 -2.41489,-1.95739 -4.93388,-4.34293 z m 446.14428,-3.24389 c 4.1157,-4.45082 9.69459,-11.42582 12.39754,-15.5 6.09332,-9.1845 7.75678,-10.991 4.05861,-4.40759 -4.249,7.56398 -13.58053,18.93846 -20.50978,25 -1.8862,1.65 -0.0621,-0.64158 4.05363,-5.09241 z m -376.06429,1.79619 c 0,-0.43792 4.17892,-0.61344 9.28649,-0.39006 11.41774,0.49938 29.27039,-1.97543 38.64537,-5.35718 7.45338,-2.68858 10.53833,-3.23369 5.21168,-0.92091 -7.26295,3.15352 -13.03661,4.73091 -22.14354,6.04974 -10.31143,1.49325 -31,1.90597 -31,0.61841 z m 272,-0.68324 c -7.50837,-1.11329 -23.54964,-6.30423 -22.55508,-7.29879 0.20574,-0.20574 4.3523,0.97701 9.21457,2.62832 10.5854,3.595 25.23151,5.56391 36.85132,4.95403 4.66905,-0.24506 8.48919,-0.0762 8.48919,0.37517 0,1.23642 -22.31692,0.77702 -32,-0.65873 z m -285,-0.67188 c -1.925,-0.53403 -5.23292,-1.42303 -7.35094,-1.97554 -2.11802,-0.55251 -3.61067,-1.24484 -3.317,-1.53851 0.29366,-0.29367 2.18186,0.01 4.196,0.67465 2.01413,0.66472 7.10678,1.78844 11.317,2.49714 6.34781,1.06853 6.88654,1.29066 3.15494,1.30089 -2.475,0.007 -6.075,-0.4246 -8,-0.95863 z m 325.26855,-0.35982 c 4.2727,-0.71837 9.17735,-1.79723 10.89922,-2.39748 3.41459,-1.19033 5.4983,-1.4241 4.58903,-0.51483 -1.20563,1.20564 -15.43318,4.38543 -19.2568,4.30381 -2.99627,-0.064 -2.05062,-0.41313 3.76855,-1.3915 z m -340.26855,-4.48884 c -0.825,-0.53316 -1.05,-0.96937 -0.5,-0.96937 0.55,0 1.675,0.43621 2.5,0.96937 0.825,0.53316 1.05,0.96937 0.5,0.96937 -0.55,0 -1.675,-0.43621 -2.5,-0.96937 z m 358,0 c 0.825,-0.53316 1.95,-0.96937 2.5,-0.96937 0.55,0 0.325,0.43621 -0.5,0.96937 -0.825,0.53316 -1.95,0.96937 -2.5,0.96937 -0.55,0 -0.325,-0.43621 0.5,-0.96937 z m -366.97176,-4.58003 c -6.98855,-3.99447 -14.7345,-11.09199 -20.54991,-18.82963 -5.32006,-7.07856 -12.50247,-20.67018 -12.45127,-23.56213 0.0149,-0.84051 1.28504,1.41958 2.82259,5.02244 6.11809,14.33624 18.90341,29.76423 29.90035,36.08064 2.8875,1.65852 5.25,3.20747 5.25,3.4421 0,0.65986 -0.2055,0.57085 -4.97176,-2.15342 z m 281.97176,1.58003 c -0.825,-0.53316 -1.05,-0.96937 -0.5,-0.96937 0.55,0 1.675,0.43621 2.5,0.96937 0.825,0.53316 1.05,0.96937 0.5,0.96937 -0.55,0 -1.675,-0.43621 -2.5,-0.96937 z m 91,0.6358 c 0,-0.26896 2.43634,-1.88295 5.41408,-3.58664 7.63955,-4.37091 20.10246,-17.93287 25.83587,-28.11423 5.03831,-8.94701 6.41489,-10.15385 2.2844,-2.00271 -6.316,12.46401 -18.65708,26.12517 -28.34794,31.38019 -2.85253,1.54683 -5.18641,2.59235 -5.18641,2.32339 z m -227.32813,-5.52643 c -0.36953,-1.84765 -0.61926,-4.76562 -0.55497,-6.48437 0.0807,-2.15578 0.39681,-1.4372 1.01939,2.31685 0.99609,6.00633 0.60509,9.51507 -0.46442,4.16752 z m -37.30959,0.19502 c 0.38258,-0.38259 1.39272,-0.79793 2.24476,-0.92298 4.15252,-0.60946 4.39296,-1.1378 4.39296,-9.65319 v -8.33455 l -7.08245,-2.28106 c -3.89534,-1.25458 -6.90576,-2.45773 -6.68982,-2.67367 0.21594,-0.21594 3.51554,0.60962 7.33244,1.83459 l 6.93983,2.22721 0.28606,9.13923 0.28607,9.13924 -3.18529,1.11039 c -3.62136,1.26242 -5.5489,1.43912 -4.52456,0.41479 z m 158.38772,-0.46667 c -2.25379,-0.82316 -2.72865,-1.57578 -2.63169,-4.17105 l 0.11832,-3.16667 0.63168,2.85089 c 0.41675,1.88082 1.65249,3.29932 3.63169,4.16878 3.51791,1.54541 2.24427,1.77688 -1.75,0.31805 z m -32.518,-3.83772 c 0,-1.925 0.2058,-2.7125 0.45733,-1.75 0.25152,0.9625 0.25152,2.5375 0,3.5 -0.25153,0.9625 -0.45733,0.175 -0.45733,-1.75 z m 30.018,-12.16544 c 0.2392,-3.02864 0.61418,-3.28754 8.67625,-5.99042 4.63444,-1.55374 8.60746,-2.64376 8.82894,-2.42229 0.22147,0.22148 -3.43571,1.65271 -8.12707,3.18052 -7.65671,2.49351 -8.58597,3.06544 -9.07894,5.58773 -0.50084,2.56259 -0.52718,2.5313 -0.29918,-0.35554 z m -119.16431,0.0707 c -0.14586,-4.41666 3.50873,-13.79607 7.89678,-20.2669 6.28774,-9.27219 17.18702,-16.65727 26.72698,-18.10951 2.61672,-0.39834 1.80848,0.0753 -2.60998,1.52956 -15.80864,5.20304 -25.86278,15.9507 -30.03395,32.10564 -1.04177,4.03479 -1.9327,6.16833 -1.97983,4.74121 z m 89.14631,-0.90526 c 0,-1.925 0.2058,-2.7125 0.45733,-1.75 0.25152,0.9625 0.25152,2.5375 0,3.5 -0.25153,0.9625 -0.45733,0.175 -0.45733,-1.75 z M -668.2851,46.08595 c -3.08704,-6.87883 -5.95871,-16.00598 -5.2568,-16.7079 0.26154,-0.26153 1.21795,2.07836 2.12537,5.19977 0.90742,3.1214 2.75488,8.17394 4.10546,11.22786 1.3506,3.05393 2.29044,5.71777 2.08856,5.91965 -0.20188,0.20189 -1.58005,-2.33583 -3.06259,-5.63938 z m 491.44894,5.66523 c -0.0249,-0.43981 0.57699,-2.01481 1.33744,-3.5 0.76045,-1.48519 2.6153,-6.43299 4.12189,-10.99512 3.26803,-9.89596 4.54476,-10.3539 1.53624,-0.55101 -1.92056,6.25792 -6.8884,16.94277 -6.99557,15.04613 z m -200.44521,-8.20802 c -1.35538,-5.49207 -7.55172,-15.2798 -12.35276,-19.5124 -5.32719,-4.69645 -10.37899,-7.58886 -17.74722,-10.16119 -4.02591,-1.40548 -4.31813,-1.64064 -1.5,-1.20707 10.75896,1.65528 23.82361,12.20577 29.60846,23.91061 1.98747,4.02138 3.41478,7.90802 3.17179,8.63698 -0.24299,0.72897 -0.77411,-0.0211 -1.18027,-1.66693 z m -134.78748,-1.17543 c 0.72187,-0.28887 1.58437,-0.25335 1.91667,0.0789 0.33229,0.33229 -0.25834,0.56864 -1.3125,0.52522 -1.16495,-0.048 -1.4019,-0.28494 -0.60417,-0.60416 z m -7.8125,-2.31689 c -0.825,-0.53316 -1.05,-0.96937 -0.5,-0.96937 0.55,0 1.675,0.43621 2.5,0.96937 0.825,0.53316 1.05,0.96937 0.5,0.96937 -0.55,0 -1.675,-0.43621 -2.5,-0.96937 z m -23,-7.16533 c -10.28408,-3.37555 -13.16477,-4.76734 -16.25,-7.85113 -2.0625,-2.06153 -3.74832,-4.36369 -3.74626,-5.11589 0.002,-0.75221 0.8635,0.0423 1.91432,1.76564 2.83754,4.65345 5.28885,5.97861 19.31201,10.4399 7.02346,2.23443 12.76993,4.25705 12.76993,4.49471 0,0.77853 -1.35547,0.41708 -14,-3.73323 z m 246.74188,-1.21563 c 6.73303,-2.34033 13.48303,-5.34789 15,-6.68346 l 2.75812,-2.42831 -2.79527,3.09833 c -2.15962,2.39377 -5.36072,3.9279 -14.07697,6.74637 -15.3665,4.96888 -15.93548,4.49814 -0.88588,-0.73293 z m 95.34372,-0.11904 c 0.10413,-1.89422 1.77076,-5.08385 1.8288,-3.5 0.0302,0.825 -0.38124,2.175 -0.9144,3 -0.53316,0.825 -0.94464,1.05 -0.9144,0.5 z m -473.92771,-5.5 c 0,-1.375 0.22698,-1.9375 0.50439,-1.25 0.27741,0.6875 0.27741,1.8125 0,2.5 -0.27741,0.6875 -0.50439,0.125 -0.50439,-1.25 z m 506.92106,-0.58333 c 0.048,-1.16495 0.28494,-1.4019 0.60416,-0.60417 0.28887,0.72187 0.25335,1.58437 -0.0789,1.91667 -0.33229,0.33229 -0.56864,-0.25834 -0.52522,-1.3125 z m -30,-4 c 0.048,-1.16495 0.28494,-1.4019 0.60416,-0.60417 0.28887,0.72187 0.25335,1.58437 -0.0789,1.91667 -0.33229,0.33229 -0.56864,-0.25834 -0.52522,-1.3125 z m -477.92106,-1.41667 c 0,-1.375 0.22698,-1.9375 0.50439,-1.25 0.27741,0.6875 0.27741,1.8125 0,2.5 -0.27741,0.6875 -0.50439,0.125 -0.50439,-1.25 z m 509,0 c 0,-1.375 0.22698,-1.9375 0.50439,-1.25 0.27741,0.6875 0.27741,1.8125 0,2.5 -0.27741,0.6875 -0.50439,0.125 -0.50439,-1.25 z m -319.38685,-0.66929 c 0.69907,-0.28127 1.96203,-1.84763 2.80657,-3.48079 0.84454,-1.63317 3.08738,-4.6871 4.98408,-6.78652 l 3.44854,-3.81713 -6.34326,-10.37313 c -7.23831,-11.83682 -8.92838,-14.87314 -8.27863,-14.87314 0.25229,0 3.84061,5.62431 7.97404,12.49847 l 7.51533,12.49847 -5.60302,7.50153 c -3.08166,4.12584 -6.09165,7.466 -6.68886,7.42258 -0.59721,-0.0434 -0.51386,-0.30907 0.18521,-0.59034 z m 130.22896,-0.11791 c 0,-0.43295 0.7875,-0.85257 1.75,-0.93248 0.9625,-0.0799 6.87836,-1.75981 13.14635,-3.73312 6.26799,-1.97331 11.60208,-3.3821 11.85354,-3.13065 0.41554,0.41555 -24.35809,8.58345 -26.03399,8.58345 -0.39375,0 -0.7159,-0.35424 -0.7159,-0.7872 z M -645.8024,17.46751 c 0.048,-1.16495 0.28494,-1.4019 0.60416,-0.60417 0.28888,0.72187 0.25335,1.58437 -0.0789,1.91667 -0.33229,0.33229 -0.56864,-0.25834 -0.52522,-1.3125 z m 449.07894,-0.41667 c 0,-1.375 0.22698,-1.9375 0.50439,-1.25 0.27741,0.6875 0.27741,1.8125 0,2.5 -0.27741,0.6875 -0.50439,0.125 -0.50439,-1.25 z m -306.48622,-2.65473 c -4.30558,-1.38707 -7.59662,-2.75365 -7.31342,-3.03685 0.54394,-0.54394 16.64175,4.55739 16.64175,5.2737 0,0.67808 -1.09578,0.41532 -9.32833,-2.23685 z m 145.04789,0.40473 c -0.83075,-1.2375 -2.34501,-3.15584 -3.36501,-4.26298 -4.79443,-5.20401 -4.77083,-5.01599 -1.37457,-10.95203 4.09707,-7.16093 5.07952,-7.2138 1.20756,-0.065 l -2.96268,5.47 4.38757,5.65032 c 2.41316,3.10768 4.38757,5.82118 4.38757,6.03 0,0.93253 -0.88747,0.20467 -2.28044,-1.87032 z M -563.8024,14.46751 c 0.048,-1.16495 0.28494,-1.4019 0.60416,-0.60417 0.28887,0.72187 0.25335,1.58437 -0.0789,1.91667 -0.3323,0.33229 -0.56864,-0.25834 -0.52522,-1.3125 z m -112.884,-1.91667 c 0.0204,-1.65 0.2445,-2.20394 0.49804,-1.23097 0.25354,0.97297 0.23687,2.32297 -0.0371,3 -0.27393,0.67703 -0.48137,-0.11903 -0.46099,-1.76903 z m 511.03705,-0.5 c 0,-1.925 0.2058,-2.7125 0.45733,-1.75 0.25152,0.9625 0.25152,2.5375 0,3.5 -0.25153,0.9625 -0.45733,0.175 -0.45733,-1.75 z m -481,-2 c 0,-1.925 0.2058,-2.7125 0.45733,-1.75 0.25152,0.9625 0.25152,2.5375 0,3.5 -0.25153,0.9625 -0.45733,0.175 -0.45733,-1.75 z m 226.768,2 -6.5,-0.6548 6.75,-0.1726 c 3.9484,-0.10096 6.75,0.24245 6.75,0.8274 0,0.55 -0.1125,0.92233 -0.25,0.8274 -0.1375,-0.0949 -3.175,-0.46726 -6.75,-0.8274 z m 224.232,-2 c 0,-1.925 0.2058,-2.7125 0.45733,-1.75 0.25152,0.9625 0.25152,2.5375 0,3.5 -0.25153,0.9625 -0.45733,0.175 -0.45733,-1.75 z m -367.19286,0.3212 c -0.0567,-3.15758 5.82726,-8.90128 10.57627,-10.32412 3.43205,-1.02827 5.01306,-0.95629 9.84414,0.44814 3.16548,0.92023 5.57355,1.85501 5.35127,2.07729 -0.22228,0.22228 -2.60644,-0.25865 -5.29813,-1.06873 -2.84697,-0.85681 -6.3081,-1.20758 -8.27481,-0.83863 -4.16822,0.78196 -9.06241,4.77424 -10.83128,8.83527 -1.11336,2.55608 -1.33465,2.697 -1.36746,0.87078 z m 284.96086,-0.11974 c 0,-0.62253 -1.39111,-2.71625 -3.09135,-4.65272 -4.15702,-4.73459 -8.89776,-5.9573 -15.97747,-4.12085 -7.23646,1.87712 -7.65059,1.12782 -0.52202,-0.94451 6.14514,-1.78644 9.49829,-1.43415 14.33267,1.50581 3.11841,1.89642 6.94748,7.65483 5.83191,8.77041 -0.31556,0.31555 -0.57374,0.06439 -0.57374,-0.55814 z m -36,-4.20146 c 0.825,-0.53316 2.175,-0.94464 3,-0.9144 0.98906,0.0362 0.81874,0.34772 -0.5,0.9144 -2.74909,1.18132 -4.32797,1.18132 -2.5,0 z m -219,-1.5 c -1.925,-0.74131 -2.825,-1.36178 -2,-1.37882 0.825,-0.017 2.85,0.58718 4.5,1.34271 3.86206,1.7684 2.0657,1.79435 -2.5,0.0361 z m -113.74782,-10 c 0.0111,-2.2 0.21589,-2.98225 0.45508,-1.73834 0.23919,1.24391 0.23011,3.04391 -0.0202,4 -0.25029,0.95609 -0.446,-0.06166 -0.4349,-2.26166 z m 450.3632,-2.11538 c -0.36634,-3.117 -0.46678,-5.86655 -0.2232,-6.11013 0.24358,-0.24358 0.7594,2.09059 1.14628,5.18705 0.38688,3.09646 0.48732,5.84601 0.22321,6.11013 -0.26412,0.26411 -0.77994,-2.07006 -1.14629,-5.18705 z m -480.42043,0.11538 c 0.0204,-1.65 0.2445,-2.20394 0.49804,-1.23097 0.25354,0.97297 0.23687,2.32297 -0.0371,3 -0.27393,0.67703 -0.48137,-0.11903 -0.46099,-1.76903 z m 511,0 c 0.0204,-1.65 0.2445,-2.20394 0.49804,-1.23097 0.25354,0.97297 0.23687,2.32297 -0.0371,3 -0.27393,0.67703 -0.48137,-0.11903 -0.46099,-1.76903 z m -189.65993,-6 c 5.73479,-10.45521 13.55265,-23.5 14.08376,-23.5 0.59191,0 -6.11951,12.49365 -8.05781,15 -0.63802,0.825 -2.00703,3.14934 -3.04224,5.16521 -1.03522,2.01587 -2.74713,4.71587 -3.80424,6 -1.16991,1.42116 -0.84883,0.37823 0.82053,-2.66521 z m -290.37712,1.5 c 0,-1.375 0.22697,-1.9375 0.50438,-1.25 0.27741,0.6875 0.27741,1.8125 0,2.5 -0.27741,0.6875 -0.50438,0.125 -0.50438,-1.25 z m 187.05877,-13.64428 c -4.55584,-7.49231 -8.14937,-13.75635 -7.98563,-13.92009 0.16374,-0.16374 4.02322,5.70926 8.57662,13.05111 9.13495,14.72907 7.96757,13.97804 16.50744,10.62016 1.5483,-0.6088 3.7983,-1.08677 5,-1.06216 1.73572,0.0355 -11.45894,4.92186 -13.3151,4.93092 -0.275,10e-4 -4.2275,-6.12763 -8.78333,-13.61994 z m 62.28333,11.59893 c -2.75,-1.02931 -5.9,-1.92571 -7,-1.99201 -1.1,-0.0663 -1.44642,-0.34453 -0.76983,-0.61831 0.67659,-0.27378 3.82659,0.28959 7,1.25192 3.17341,0.96233 6.37749,1.64176 7.12018,1.50984 0.7427,-0.13192 1.05364,0.24024 0.69099,0.82703 -0.81858,1.32447 -0.92994,1.309 -7.04134,-0.97847 z m -279.34211,-0.95465 c 0,-1.375 0.22698,-1.9375 0.50439,-1.25 0.27741,0.6875 0.27741,1.8125 0,2.5 -0.27741,0.6875 -0.50439,0.125 -0.50439,-1.25 z m 509,0 c 0,-1.375 0.22698,-1.9375 0.50439,-1.25 0.27741,0.6875 0.27741,1.8125 0,2.5 -0.27741,0.6875 -0.50439,0.125 -0.50439,-1.25 z m -220.02565,-4.25 c 0.66143,-1.2375 3.43398,-6.02904 6.16121,-10.64787 2.72724,-4.61884 5.31322,-9.56884 5.74663,-11 0.54205,-1.78991 0.81484,-2.02502 0.87397,-0.75323 0.0845,1.81736 -4.17609,10.1713 -10.08587,19.77591 -3.03953,4.93988 -4.90297,6.75441 -2.69594,2.62519 z m 218.98376,-1.08203 c -0.14304,-2.25915 -4.86883,-16.18486 -6.74245,-19.86831 -2.08941,-4.10769 -1.55732,-4.78894 0.62458,-0.79966 2.86956,5.24656 7.21953,18.71884 6.69442,20.73326 -0.42615,1.63477 -0.46921,1.62989 -0.57655,-0.0653 z m -507.03705,-1.2513 c 0.048,-1.16495 0.28494,-1.4019 0.60416,-0.60417 0.28887,0.72187 0.25335,1.58437 -0.0789,1.91667 -0.33229,0.33229 -0.56864,-0.25834 -0.52522,-1.3125 z m 181.32005,-3.66667 c -1.44434,-2.3375 -3.93567,-6.33104 -5.53628,-8.87454 -2.91631,-4.63425 -14.2865,-15.24058 -19.88089,-18.54526 -1.64,-0.96878 -2.98183,-2.14235 -2.98183,-2.60794 0,-0.46559 2.08829,0.64393 4.64064,2.4656 8.39716,5.99326 17.30644,14.96229 21.04678,21.18793 2.02367,3.36832 4.32362,7.13671 5.111,8.37421 0.78738,1.2375 1.16049,2.25 0.82913,2.25 -0.33135,0 -1.7842,-1.9125 -3.22855,-4.25 z m -149.36837,1.75 c 0,-0.55 0.43621,-1.675 0.96937,-2.5 0.53316,-0.825 0.96937,-1.05 0.96937,-0.5 0,0.55 -0.43621,1.675 -0.96937,2.5 -0.53316,0.825 -0.96937,1.05 -0.96937,0.5 z m -30.64203,-2.79073 c 1.02295,-4.26119 4.7549,-13.89911 5.20691,-13.44709 0.48041,0.4804 -4.31006,14.8103 -5.23181,15.65011 -0.35478,0.32324 -0.34357,-0.66812 0.0249,-2.20302 z m 32.6114,-2.18024 c 0,-1.24955 4.84325,-9.41032 8.32593,-14.02903 4.28623,-5.68435 10.66802,-12.31457 14.17407,-14.72581 1.65,-1.13477 0.0254,0.81431 -3.61012,4.3313 -7.25765,7.02091 -9.9504,10.42063 -15.31488,19.33568 -1.96625,3.26765 -3.575,5.55718 -3.575,5.08786 z m 438.14286,-1.67189 c -0.70479,-1.12854 -1.06172,-2.27162 -0.79317,-2.54017 0.26855,-0.26854 1.01119,0.48882 1.65031,1.68303 1.51127,2.82383 0.8094,3.5257 -0.85714,0.85714 z m -5.63574,-9.59206 c -2.08783,-3.1708 -6.99354,-8.88094 -10.90159,-12.68921 -3.90804,-3.80827 -5.75553,-5.98148 -4.10553,-4.82936 5.95677,4.15937 20.59592,21.4909 19.27126,22.81556 -0.25744,0.25745 -2.1763,-2.1262 -4.26414,-5.29699 z m -127.94072,-2.88502 c 4.3238,-4.16478 7.29423,-6.64348 15.1836,-12.67009 0.6875,-0.52517 1.25,-0.73903 1.25,-0.47525 0,0.26379 -3.2625,3.16768 -7.25,6.45311 -12.75376,10.5082 -14.36192,11.68009 -9.1836,6.69223 z m -331.00211,0.32681 c 0.37553,-0.98622 0.93469,-1.54122 1.24258,-1.23333 0.30789,0.30789 6.4e-4,1.11479 -0.68278,1.79313 -0.98762,0.98026 -1.10248,0.8654 -0.5598,-0.5598 z m 295.1102,-6.20687 c 0.37367,-1.1 1.62974,-3.575 2.79126,-5.5 1.16153,-1.925 3.2059,-5.6135 4.54305,-8.19667 1.33715,-2.58317 2.59784,-4.53002 2.80153,-4.32633 0.45095,0.45094 -7.31298,15.50572 -9.35437,18.13874 -1.41553,1.82578 -1.43978,1.82219 -0.78147,-0.11574 z m -291.67449,-1.37756 c 0,-0.48265 0.74867,-1.49515 1.66372,-2.25 1.5086,-1.24448 1.55194,-1.16266 0.46482,0.87756 -1.23991,2.32696 -2.12854,2.89993 -2.12854,1.37244 z m 191.76634,-1.35629 c -2.34384,-3.57716 -8.42694,-15.98812 -9.19802,-18.76615 -0.38165,-1.375 1.54655,1.90835 4.2849,7.29634 2.73834,5.38799 5.53073,10.46136 6.20529,11.27417 0.67457,0.8128 0.99832,1.70599 0.71945,1.98486 -0.27887,0.27888 -1.1841,-0.52627 -2.01162,-1.78922 z m 292.19787,0.0695 c -1.14512,-2.23286 -1.1183,-2.25968 0.60945,-0.60946 0.99401,0.94941 1.53304,2.00045 1.19784,2.33565 -0.3352,0.3352 -1.14849,-0.44159 -1.80729,-1.72619 z m -3.63893,-5.58565 c -0.94645,-1.5125 -4.14488,-5.5625 -7.10761,-9 -2.96274,-3.4375 -5.01124,-6.22471 -4.55223,-6.19381 1.72686,0.11627 15.48008,17.94381 13.84291,17.94381 -0.25423,0 -1.23662,-1.2375 -2.18307,-2.75 z m -348.10871,-4.1516 c -7.73137,-4.53191 -21.97961,-10.0984 -25.84833,-10.0984 -0.93587,0 -1.42586,-0.27571 -1.08888,-0.61269 1.9724,-1.97241 26.55903,7.93952 33.72064,13.59425 3.94447,3.1145 2.14032,2.34769 -6.78343,-2.88316 z m 213.15255,4.11337 c 1.03883,-1.68087 16.70705,-10.03957 22.85352,-12.19192 2.90255,-1.01641 7.07736,-2.11541 9.27736,-2.44222 2.52435,-0.375 1.47945,0.15369 -2.8324,1.43311 -7.46294,2.21441 -16.15337,6.15316 -24.58867,11.14427 -2.98159,1.76419 -5.10101,2.68973 -4.70981,2.05676 z m -339.87436,-1.21177 c 1.89684,-3.48939 12.50524,-15.8677 12.50524,-14.59163 0,0.38523 -2.7639,3.93844 -6.142,7.89602 -7.14622,8.37209 -7.44613,8.68767 -6.36324,6.69561 z m 44.55478,-2.55969 c 1.13005,-1.36162 15.94383,-8.78027 16.47402,-8.25009 0.18695,0.18696 -3.6699,2.39284 -8.57079,4.90197 -4.90089,2.50913 -8.45734,4.01578 -7.90323,3.34812 z m 375.95046,-4.18422 c -5.775,-2.9763 -9.375,-5.10867 -8,-4.73861 3.89952,1.04949 16.78883,7.52315 18.08251,9.08194 0.63931,0.77032 0.99478,1.32578 0.78993,1.23435 -0.20484,-0.09143 -5.09744,-2.60139 -10.87244,-5.57768 z m -123.96937,-3.75609 c 0,-0.55 0.43621,-1.675 0.96937,-2.5 0.53316,-0.825 0.96937,-1.05 0.96937,-0.5 0,0.55 -0.43621,1.675 -0.96937,2.5 -0.53316,0.825 -0.96937,1.05 -0.96937,0.5 z m -226.28063,-3.16228 c 0.6875,-0.27741 1.8125,-0.27741 2.5,0 0.6875,0.27741 0.125,0.50439 -1.25,0.50439 -1.375,0 -1.9375,-0.22698 -1.25,-0.50439 z m 332,0 c 0.6875,-0.27741 1.8125,-0.27741 2.5,0 0.6875,0.27741 0.125,0.50439 -1.25,0.50439 -1.375,0 -1.9375,-0.22698 -1.25,-0.50439 z m -325.48097,-1.03071 c 0.97297,-0.25354 2.32297,-0.23687 3,0.0371 0.67703,0.27393 -0.11903,0.48137 -1.76903,0.46099 -1.65,-0.0204 -2.20394,-0.2445 -1.23097,-0.49804 z m 17.48097,0.0307 c 0.6875,-0.27741 1.8125,-0.27741 2.5,0 0.6875,0.27741 0.125,0.50439 -1.25,0.50439 -1.375,0 -1.9375,-0.22698 -1.25,-0.50439 z m 284,0 c 0.6875,-0.27741 1.8125,-0.27741 2.5,0 0.6875,0.27741 0.125,0.50439 -1.25,0.50439 -1.375,0 -1.9375,-0.22698 -1.25,-0.50439 z m 17.51903,-0.0307 c 0.97297,-0.25354 2.32297,-0.23687 3,0.0371 0.67703,0.27393 -0.11903,0.48137 -1.76903,0.46099 -1.65,-0.0204 -2.20394,-0.2445 -1.23097,-0.49804 z m -381.69923,-1.43704 c 2.18247,-3.57593 15.93087,-13.29895 25.23819,-17.84874 9.17198,-4.48362 22.1989,-9.05254 25.56966,-8.968 1.16729,0.0293 -1.70265,1.16879 -6.37765,2.53227 -14.7948,4.31495 -27.13215,10.88395 -39.76238,21.17141 -3.02717,2.46567 -5.12769,3.86654 -4.66782,3.11306 z m 445.45864,-0.33571 c -2.54325,-3.06442 -15.65143,-12.13569 -23.47485,-16.24533 -4.42947,-2.32679 -7.7061,-4.24368 -7.28139,-4.25973 1.9214,-0.0727 16.81227,8.18991 22.2278,12.33363 10.28136,7.86683 10.98614,8.48437 10.37756,9.09294 -0.32591,0.32591 -1.15801,-0.0888 -1.84912,-0.92151 z m -206.94949,-5.75033 c -0.16283,-3.5394 -3.45265,-8.60808 -6.9547,-10.7152 -2.72508,-1.63963 -3.004,-2.0142 -1.12425,-1.50975 1.375,0.36899 3.49944,1.58534 4.72098,2.70301 2.44034,2.23282 4.72855,8.04092 3.9384,9.99673 -0.30062,0.74409 -0.53311,0.55391 -0.58043,-0.47479 z m -29.05699,-0.56605 c -0.0444,-2.58989 2.83182,-8.00206 5.09491,-9.58719 3.45387,-2.41918 4.59291,-1.97685 1.39236,0.54071 -1.51827,1.19427 -3.59407,4.00677 -4.6129,6.25 -1.01882,2.24323 -1.86229,3.50165 -1.87437,2.79648 z m 78.05699,-2.80121 c 0.048,-1.16495 0.28494,-1.4019 0.60416,-0.60417 0.28887,0.72187 0.25335,1.58437 -0.0789,1.91667 -0.33229,0.33229 -0.56864,-0.25834 -0.52522,-1.3125 z m -167.07895,-7.41667 c -1.925,-1.05389 -3.05,-1.91617 -2.5,-1.91617 0.55,0 2.575,0.86228 4.5,1.91617 1.925,1.05389 3.05,1.91617 2.5,1.91617 -0.55,0 -2.575,-0.86228 -4.5,-1.91617 z m 36.15789,0 c 0,-1.375 0.22698,-1.9375 0.50439,-1.25 0.27741,0.6875 0.27741,1.8125 0,2.5 -0.27741,0.6875 -0.50439,0.125 -0.50439,-1.25 z m 167.84211,0.08243 c 1.375,-1.12088 3.1375,-2.04796 3.91667,-2.06019 1.81829,-0.0285 1.36374,0.34717 -2.91667,2.41078 l -3.5,1.68737 z m -34.92105,-0.66576 c 0.048,-1.16495 0.28494,-1.4019 0.60416,-0.60417 0.28887,0.72187 0.25335,1.58437 -0.0789,1.91667 -0.33229,0.33229 -0.56864,-0.25834 -0.52522,-1.3125 z m -163.884,-1.91667 c 0.0204,-1.65 0.2445,-2.20394 0.49804,-1.23097 0.25354,0.97297 0.23687,2.32297 -0.0371,3 -0.27393,0.67703 -0.48137,-0.11903 -0.46099,-1.76903 z m 195,0 c 0.0204,-1.65 0.2445,-2.20394 0.49804,-1.23097 0.25354,0.97297 0.23687,2.32297 -0.0371,3 -0.27393,0.67703 -0.48137,-0.11903 -0.46099,-1.76903 z m -100.19495,0.51392 c 0.825,-0.54081 2.5875,-0.99019 3.91667,-0.99861 3.20962,-0.0203 2.39612,0.54826 -1.91667,1.33965 -2.46242,0.45185 -3.05532,0.35075 -2,-0.34104 z m 112.5,-1.8213 c 3.66805,-2.20071 16.37668,-5.96108 22.5,-6.65754 2.78666,-0.31695 1.07331,0.37746 -4.5,1.82382 -4.95,1.2846 -11.475,3.30414 -14.5,4.48787 -6.69458,2.61968 -7.4073,2.69011 -3.5,0.34585 z m -224,-0.88465 c -2.2,-0.8531 -8.05,-2.62593 -13,-3.93961 -6.25014,-1.65872 -7.53124,-2.21132 -4.19291,-1.8086 5.76215,0.69512 20.71009,5.05742 22.10307,6.4504 1.36565,1.36565 -0.1287,1.15195 -4.91016,-0.70219 z m 45.50062,-6.80362 c -0.90046,-6.34347 -0.94337,-10.36817 -0.1632,-15.3055 l 1.05851,-6.69885 -0.41845,6.11436 c -0.23016,3.36289 0.0303,10.06339 0.5787,14.89 1.29566,11.40266 0.52477,12.13297 -1.05556,0.99999 z m 136.19433,5.99565 c 0.0204,-1.65 0.2445,-2.20394 0.49804,-1.23097 0.25354,0.97297 0.23687,2.32297 -0.0371,3 -0.27393,0.67703 -0.48137,-0.11903 -0.46099,-1.76903 z m 114.80505,-1.06721 c -3.79294,-1.40692 -5.06838,-2.15711 -3.0625,-1.80129 3.40241,0.60355 12.49007,4.23413 10.5625,4.21979 -0.55,-0.004 -3.925,-1.09242 -7.5,-2.4185 z m -280.70034,-6.43279 c 0,-3.025 0.18747,-4.2625 0.41659,-2.75 0.22913,1.5125 0.22913,3.9875 0,5.5 -0.22912,1.5125 -0.41659,0.275 -0.41659,-2.75 z m 197,0 c 0,-3.025 0.18747,-4.2625 0.41659,-2.75 0.22913,1.5125 0.22913,3.9875 0,5.5 -0.22912,1.5125 -0.41659,0.275 -0.41659,-2.75 z m -29.87669,-8 c 0,-11.24257 0.0881,-11.87129 0.87582,-6.25 0.5011,3.5759 0.5011,8.9241 0,12.5 -0.78772,5.62128 -0.87582,4.99257 -0.87582,-6.25 z m 95.57703,10.42163 -6.5,-1.3342 6.01134,0.47894 c 6.60858,0.52652 14.13899,2.2928 9.48866,2.22559 -1.375,-0.0199 -5.425,-0.63652 -9,-1.37033 z m -331.5,-0.42163 c 1.65,-0.41985 4.35,-0.76337 6,-0.76337 h 3 l -3,0.76337 c -1.65,0.41985 -4.35,0.76337 -6,0.76337 h -3 z m 24.75,-0.68933 c 0.9625,-0.25152 2.5375,-0.25152 3.5,0 0.9625,0.25153 0.175,0.45733 -1.75,0.45733 -1.925,0 -2.7125,-0.2058 -1.75,-0.45733 z m 282,0 c 0.9625,-0.25152 2.5375,-0.25152 3.5,0 0.9625,0.25153 0.175,0.45733 -1.75,0.45733 -1.925,0 -2.7125,-0.2058 -1.75,-0.45733 z m -237.96399,-18.81067 c 0.008,-2.75 0.20172,-3.75631 0.43157,-2.23625 0.22986,1.52006 0.22371,3.77006 -0.0136,5 -0.23741,1.22994 -0.42547,-0.0138 -0.41797,-2.76375 z m 197,0 c 0.008,-2.75 0.20172,-3.75631 0.43157,-2.23625 0.22986,1.52006 0.22371,3.77006 -0.0136,5 -0.23741,1.22994 -0.42547,-0.0138 -0.41797,-2.76375 z m -166.21572,-6.58333 c 0.0387,-1.32917 0.47804,-3.31667 0.97641,-4.41667 0.63152,-1.3939 0.72154,-0.7878 0.29705,2 -0.70698,4.643 -1.37509,5.91088 -1.27346,2.41667 z m 134.55471,-2.04167 c -0.83365,-4.16825 -0.0258,-4.97614 0.875,-0.875 0.37968,1.72866 0.48187,3.35146 0.22711,3.60623 -0.25477,0.25477 -0.75072,-0.97429 -1.10211,-2.73123 z m -164.54605,-0.45833 c 0.048,-1.16495 0.28494,-1.4019 0.60416,-0.60417 0.28887,0.72188 0.25335,1.58438 -0.0789,1.91667 -0.3323,0.33229 -0.56864,-0.25834 -0.52522,-1.3125 z m 195.116,-0.91667 c 0.0204,-1.65 0.2445,-2.20394 0.49804,-1.23097 0.25354,0.97297 0.23687,2.32297 -0.0371,3 -0.27388,0.67703 -0.48132,-0.11903 -0.46094,-1.76903 z m -194.116,-4.08333 c 0.048,-1.16495 0.28494,-1.4019 0.60416,-0.60417 0.28887,0.72188 0.25335,1.58438 -0.0789,1.91667 -0.3323,0.33229 -0.56864,-0.25834 -0.52522,-1.3125 z m 161.54459,-2.95533 c -0.96498,-2.51469 -0.68031,-3.16355 0.49853,-1.13634 0.58369,1.00375 0.8506,2.03566 0.59313,2.29313 -0.25747,0.25747 -0.74872,-0.26309 -1.09166,-1.15679 z m -128.62354,-3.2728 c 0,-1.7385 4.66171,-10.80267 8.24057,-16.02284 4.12684,-6.01948 12.81914,-14.52095 19.13349,-18.71345 5.19097,-3.44661 15.46807,-7.94345 16.28561,-7.12592 0.22671,0.22672 -2.19147,1.45198 -5.37373,2.7228 -5.81547,2.32239 -14.57715,7.81395 -19.35381,12.1304 -5.13803,4.643 -12.28978,14.40379 -15.57231,21.25327 -1.8479,3.85593 -3.35982,6.44601 -3.35982,5.75574 z m 123.81923,-8.46648 c -6.42566,-13.05653 -17.31566,-23.63076 -31.31923,-30.41108 -3.85,-1.86411 -5.875,-3.09765 -4.5,-2.74119 11.64256,3.01825 28.46895,17.45978 35.35418,30.34331 2.11979,3.96653 3.66987,7.39618 3.44461,7.62144 -0.22526,0.22527 -1.56606,-1.94036 -2.97956,-4.81248 z m 31.95,-1.49129 c -2.18234,-6.06883 -1.51107,-6.74011 0.76923,-0.76923 0.96266,2.52068 1.56029,4.77304 1.32807,5.00526 -0.23221,0.23221 -1.176,-1.674 -2.0973,-4.23603 z m -184.76923,1.83325 c 0,-2.52723 8.06417,-18.39997 12.52193,-24.64696 9.37945,-13.14412 21.69749,-24.45413 32.71335,-30.03628 2.62059,-1.32796 4.76472,-2.25148 4.76472,-2.05226 0,0.19921 -3.9375,2.76588 -8.75,5.70372 -15.53028,9.48058 -30.21666,26.6773 -37.20987,43.57012 -3.49698,8.44734 -4.04013,9.45047 -4.04013,7.46166 z m 180.15662,-12.44287 c -3.54538,-8.01492 -10.91335,-18.41539 -18.38546,-25.95256 -11.39425,-11.49345 -23.17078,-18.71315 -38.77116,-23.76901 -4.675,-1.5151 -7.79132,-2.78732 -6.92515,-2.82715 2.39487,-0.11014 14.62158,4.25756 21.973,7.84932 16.91248,8.26312 33.36145,25.10896 42.89032,43.92515 1.21074,2.3908 1.98256,4.5657 1.71515,4.83312 -0.26741,0.26741 -1.39093,-1.55908 -2.4967,-4.05887 z m -68.34412,-22.30426 c 0.72187,-0.28888 1.58438,-0.25335 1.91667,0.0789 0.33229,0.33229 -0.25834,0.56864 -1.3125,0.52522 -1.16495,-0.048 -1.4019,-0.28495 -0.60417,-0.60417 z m -33,-1 c 0.72187,-0.28888 1.58437,-0.25335 1.91667,0.0789 0.33229,0.33229 -0.25834,0.56864 -1.3125,0.52522 -1.16495,-0.048 -1.4019,-0.28495 -0.60417,-0.60417 z m 6.4375,-1.00622 c 0.9625,-0.25152 2.5375,-0.25152 3.5,0 0.9625,0.25153 0.175,0.45733 -1.75,0.45733 -1.925,0 -2.7125,-0.2058 -1.75,-0.45733 z m 14.51166,-0.0179 c 1.24391,-0.23919 3.04391,-0.23011 4,0.0202 0.95609,0.2503 -0.0617,0.446 -2.26166,0.4349 -2.2,-0.0111 -2.98225,-0.21588 -1.73834,-0.45508 z m -43.26166,-23.28926 c 3.3,-1.55838 7.575,-3.1129 9.5,-3.45448 1.925,-0.34159 -0.55,0.961 -5.5,2.89464 -10.7858,4.21331 -12.13698,4.40242 -4,0.55984 z m 19.25,-5.66576 c 0.6875,-0.27741 1.8125,-0.27741 2.5,0 0.6875,0.27741 0.125,0.50439 -1.25,0.50439 -1.375,0 -1.9375,-0.22698 -1.25,-0.50439 z m 34,0 c 0.6875,-0.27741 1.8125,-0.27741 2.5,0 0.6875,0.27741 0.125,0.50439 -1.25,0.50439 -1.375,0 -1.9375,-0.22698 -1.25,-0.50439 z m -26.48097,-1.03071 c 0.97297,-0.25354 2.32297,-0.23687 3,0.037 0.67703,0.27393 -0.11903,0.48137 -1.76903,0.46099 -1.65,-0.0204 -2.20394,-0.2445 -1.23097,-0.49804 z m 18.98097,0.004 c 0.9625,-0.25152 2.5375,-0.25152 3.5,0 0.9625,0.25153 0.175,0.45733 -1.75,0.45733 -1.925,0 -2.7125,-0.2058 -1.75,-0.45733 z"
       id="path207"
       inkscape:connector-curvature="0" />
    <path
       style="fill:#4cae50"
       d="m -525.88135,293.86696 c -14.73072,-1.81836 -34.06786,-9.67602 -46.83765,-19.03251 -7.86202,-5.76055 -21.06457,-19.19695 -25.33487,-25.78361 -12.6061,-19.44412 -16.72442,-32.38294 -17.52884,-55.0716 -0.74249,-20.94229 1.2266,-31.14784 9.38905,-48.66219 4.81691,-10.33575 10.09099,-17.97445 18.58222,-26.9135 3.86258,-4.0663 6.81292,-7.60322 6.5563,-7.85983 -0.25661,-0.25661 -4.08453,-1.15288 -8.50649,-1.99172 -45.96813,-8.72 -79.04175,-44.42606 -85.99158,-92.83593 -2.23183,-15.54607 -0.84056,-30.20975 4.28523,-45.16523 5.76045,-16.80722 10.29585,-24.97911 20.25748,-36.5 6.84468,-7.91606 5.96665,-7.11054 16.18756,-14.85059 14.55507,-11.02219 29.51106,-17.27462 49.48473,-20.68734 18.32921,-3.13175 41.67025,0.88541 61.68492,10.61639 2.60043,1.26432 4.98595,2.04087 5.30114,1.72567 0.3152,-0.3152 0.117,-5.91257 -0.44043,-12.43861 -1.58153,-18.51546 0.37835,-33.88246 6.26546,-49.12613 4.60243,-11.91721 7.53332,-17.51934 13.16445,-25.16264 11.57823,-15.7155 27.34006,-27.56933 45.90345,-34.52213 47.58853,-17.82399 99.35011,3.83748 120.95921,50.61968 8.62463,18.67172 11.64153,39.35385 9.22164,63.21813 -0.92979,9.16927 -2.26254,8.86659 12.39702,2.81549 19.13661,-7.8991 37.18693,-10.49296 54.03447,-7.76484 19.83473,3.21184 35.25216,9.6085 49.90712,20.70633 10.25026,7.76227 9.37587,6.95694 16.12405,14.85059 13.4644,15.74992 21.32759,33.14183 24.56528,54.33385 4.69585,30.73632 -6.48154,64.97986 -29.23002,89.55032 -14.88469,16.07684 -35.31316,26.86311 -58.81371,31.05375 -3.25205,0.5799 -6.13043,1.27198 -6.39639,1.53795 -0.26597,0.26597 2.68699,3.82137 6.56214,7.90089 8.68186,9.13974 13.77869,16.71215 19.0117,28.24586 7.10403,15.65748 9.37046,26.06192 9.34013,42.87738 -0.041,22.73287 -4.98708,39.15476 -17.87242,59.33983 -7.52896,11.79422 -25.67567,27.90303 -38.73235,34.38266 -7.33828,3.64176 -18.03312,7.49677 -26,9.37182 -8.26394,1.94498 -27.33749,2.28004 -35.67493,0.6267 -8.73887,-1.73294 -22.93875,-7.41932 -32.036,-12.82889 -15.00784,-8.92423 -33.70587,-29.5518 -41.37267,-45.64212 -0.98276,-2.0625 -2.09888,-3.75 -2.48029,-3.75 -0.38141,0 -1.282,1.42084 -2.00132,3.15743 -2.70545,6.53152 -14.02052,22.55476 -21.43479,30.35371 -3.42949,3.60743 -16.39241,13.67662 -20.79689,16.15438 -12.48004,7.0207 -26.49706,11.84563 -38.67688,13.31335 -9.6139,1.15852 -12.48698,1.13821 -23.02623,-0.16275 z m 27.68795,-30.36783 c 3.74663,-0.85345 10.63705,-3.41833 15.31205,-5.69974 7.02702,-3.42921 10.14816,-5.80301 18.01085,-13.69829 14.07994,-14.13827 21.87106,-29.42766 27.54277,-54.05026 1.32302,-5.74362 1.83109,-13.71514 2.16953,-34.03964 l 0.44193,-26.53964 -8.17411,-2.36195 -8.1741,-2.36194 -2.37279,2.90158 c -1.30504,1.59588 -4.95875,6.50159 -8.11935,10.90159 -9.63951,13.41954 -23.07509,31.83559 -25.44172,34.8728 -7.69478,9.87505 -21.13872,8.37989 -25.41864,-2.82693 -2.37064,-6.20742 -1.54409,-9.02921 5.48626,-18.72967 3.31491,-4.57391 9.51962,-13.15868 13.78824,-19.07727 4.26862,-5.91859 10.19897,-13.96135 13.17856,-17.87279 3.70332,-4.86152 5.12715,-7.50005 4.5,-8.33905 -0.50459,-0.67504 -2.66864,-3.76978 -4.80901,-6.87721 -2.20893,-3.20697 -4.64314,-5.64988 -5.62977,-5.64988 -5.60512,0 -49.88268,18.42439 -55.21782,22.97675 -0.69346,0.59172 -3.51083,2.52088 -6.26083,4.28704 -6.92861,4.44983 -21.96368,19.08442 -26.59039,25.88213 -15.43817,22.68223 -17.43703,52.08452 -5.19078,76.35408 4.92092,9.75226 8.07541,14.0632 15.41908,21.07179 6.74433,6.43658 17.40741,13.2854 24.86209,15.96874 12.54774,4.51661 28.59159,5.66318 40.68795,2.90776 z m 186.81241,-0.44838 c 13.72242,-3.50961 24.17964,-9.36586 34.3157,-19.21747 6.42812,-6.24772 9.69392,-10.82691 14.46511,-20.28244 10.2776,-20.36811 10.68214,-43.50585 1.13798,-65.0869 -8.56688,-19.37124 -30.38995,-38.82089 -57.41915,-51.17438 -9.70926,-4.43754 -33.16946,-13.23872 -35.28881,-13.23872 -0.90245,0 -2.16614,1.0125 -2.8082,2.25 -0.64206,1.2375 -2.72669,4.17919 -4.63253,6.53709 -3.06433,3.7912 -3.3093,4.50517 -2.1178,6.17236 2.84109,3.97541 15.92478,22.1582 26.16096,36.35668 5.87481,8.14887 10.9571,15.91433 11.29398,17.25657 1.04255,4.15385 -0.51142,9.07091 -4.10748,12.9969 -2.99577,3.27061 -4.13371,3.81221 -8.72267,4.15152 -6.89779,0.51003 -10.3499,-1.64942 -16.5518,-10.35384 -2.59911,-3.64789 -7.65065,-10.58671 -11.22565,-15.41961 -3.575,-4.8329 -9.81298,-13.32323 -13.86219,-18.86738 -4.0492,-5.54416 -7.77119,-10.08029 -8.27108,-10.08029 -0.49989,0 -4.31101,1.00092 -8.46914,2.22426 l -7.56025,2.22426 0.3944,27.02574 c 0.34056,23.33665 0.68407,28.18747 2.51649,35.5364 3.17115,12.7179 6.87579,22.412 12.60568,32.98586 6.66957,12.30794 20.49593,26.55224 31.32922,32.27623 14.40423,7.61078 31.34802,9.68352 46.81723,5.72716 z m -99.93402,-162.08023 c 13.89023,-2.52895 26.42782,-12.35102 32.7186,-25.63208 3.06438,-6.46948 3.21506,-7.35002 3.21506,-18.7876 0,-11.41424 -0.15547,-12.32819 -3.18498,-18.72333 -15.32589,-32.35216 -59.16134,-35.98809 -78.69713,-6.52753 -6.1532,9.27921 -7.9213,15.87405 -7.44007,27.75086 0.32576,8.03986 0.85617,10.49904 3.45093,16 5.836,12.37243 17.71905,22.4403 29.99184,25.41048 7.30614,1.76818 12.3268,1.89636 19.94575,0.5092 z M -541.88135,80.64756 c 5.225,-0.75041 12.2,-2.35734 15.5,-3.57095 3.3,-1.21361 11.9625,-4.25917 19.25,-6.76791 l 13.25,-4.56135 v -8.86969 c 0,-8.26463 -0.15349,-8.93115 -2.25,-9.77052 -1.2375,-0.49545 -15.075,-5.06543 -30.75,-10.1555 -24.18046,-7.85202 -28.98365,-9.73424 -31.69106,-12.4188 -1.75508,-1.74026 -3.4921,-4.36359 -3.86005,-5.82963 -1.76525,-7.0333 3.48197,-15.74885 10.64246,-17.67697 4.75811,-1.28122 3.78002,-1.53262 38.86729,9.98996 15.10226,4.95954 27.76728,8.68374 28.14451,8.276 0.37722,-0.40775 2.96608,-3.7799 5.75301,-7.49366 l 5.06716,-6.75231 -12.50571,-20.74769 c -14.26255,-23.66238 -19.48683,-29.52541 -36.25651,-40.68944 -19.83285,-13.20327 -32.98243,-17.22965 -53.10264,-16.25996 -25.09718,1.20955 -45.28019,12.75653 -59.35147,33.95582 -4.85372,7.31244 -7.01177,12.48748 -9.72687,23.32522 -4.11902,16.44174 -1.60363,38.14751 6.24865,53.92066 4.38117,8.80059 12.87633,19.68096 20.01147,25.63013 10.31086,8.59704 28.48346,15.98725 42.25976,17.18569 9.90583,0.86174 25.7996,0.53046 34.5,-0.7191 z m 289,-1.5326 c 27.4465,-7.25067 47.14658,-27.12089 55.58408,-56.06412 1.4818,-5.08305 1.88896,-9.66089 1.86776,-21 -0.0247,-13.20384 -0.2799,-15.25982 -2.85509,-23 -6.37468,-19.16017 -17.63904,-32.85121 -35.59675,-43.26538 -13.27613,-7.69919 -34.83055,-10.73144 -52.05846,-7.32353 -15.3549,3.03741 -37.27355,15.74979 -50.94154,29.5451 -4.04252,4.08018 -8.63595,11.06119 -17.33397,26.34388 -12.96572,22.78118 -12.45358,20.60677 -6.40483,27.19325 1.51866,1.65368 3.31602,4.24418 3.99411,5.75668 0.6781,1.5125 1.5254,2.75 1.88288,2.75 0.35749,0 13.63514,-4.30785 29.50589,-9.573 31.19677,-10.34957 36.32753,-11.32004 41.11153,-7.77612 9.10668,6.74612 9.46132,18.22953 0.73946,23.9443 -1.43022,0.93712 -15.9642,6.06888 -32.29774,11.4039 l -29.69733,9.70004 -0.1083,9.07108 -0.1083,9.07107 7.6083,2.63716 c 4.18456,1.45044 12.3333,4.47101 18.1083,6.71238 5.775,2.24137 14.325,4.67382 19,5.40544 12.17508,1.90537 38.123,1.07713 48,-1.53213 z m -188.25139,-93.69109 6.24862,-1.87303 10e-4,-31.53811 c 0.001,-30.73344 0.0588,-31.65046 2.25139,-35.94146 4.2469,-8.31136 12.16538,-11.16307 19.51971,-7.0297 7.50977,4.22072 7.69047,5.17155 8.03095,42.25927 0.25756,28.05494 0.51203,32.75 1.77499,32.75 0.81087,0 4.03498,0.9 7.16467,2 3.1297,1.1 5.75766,2 5.83991,2 0.32385,0 10.41043,-16.81763 13.19477,-22 1.62525,-3.025 3.21289,-6.85 3.5281,-8.5 0.31521,-1.65 2.63457,-6.6 5.15412,-11 7.90442,-13.8038 14.0934,-32.52538 16.59817,-50.20922 1.58618,-11.19852 -0.48938,-26.38649 -5.4995,-40.24284 -5.04986,-13.96731 -17.54167,-28.54617 -30.24721,-35.30117 -11.04616,-5.87277 -21.41919,-8.06579 -35.3083,-7.46471 -19.23236,0.83233 -32.75663,6.51805 -45.27083,19.03224 -12.57538,12.57538 -19.16177,26.99201 -21.80417,47.72609 -1.05092,8.24622 -0.98284,10.93391 0.50189,19.81323 2.92367,17.48483 10.904,39.68088 17.75294,49.37704 1.06085,1.50186 2.69187,4.90971 3.62449,7.57299 2.67894,7.65022 17.4192,31.34358 19.19568,30.85497 0.825,-0.22691 4.31188,-1.25543 7.74861,-2.28559 z"
       id="path205"
       inkscape:connector-curvature="0" />
  </g>
</svg>
